<?xml version="1.0"?><svg width="640" height="480" xmlns="http://www.w3.org/2000/svg">
 <title>black wave</title>
 <metadata id="metadata7">image/svg+xmlFlourish Eleven2006 SeptemberNathan EadyGalion Public LibraryOpen Clip Art Library</metadata>
 <g>
  <title>Layer 1</title>
  <text fill="#000000" stroke="#000000" stroke-width="0" x="456" y="188" id="svg_1" font-size="24" font-family="Arial" text-anchor="middle" xml:space="preserve" transform="matrix(25.553451492522527,0,0,3.6363637447357178,-11305.873883251561,-429.727290391922) "/>
  <text fill="#000000" stroke="#000000" stroke-width="0" stroke-dasharray="null" stroke-linejoin="null" stroke-linecap="null" x="378" y="258" id="svg_2" font-size="24" font-family="Arial" text-anchor="middle" xml:space="preserve" transform="matrix(14.285714149475098,0,0,1,-5114.999947547913,0) "/>
  <g externalResourcesRequired="false" id="layer1">
   <path fill="#000000" fill-rule="evenodd" stroke="#000000" stroke-width="1px" d="m503.350464,269.603149c18.208923,-8.201691 19.547668,-14.389465 18.791321,-28.584534c-0.741821,-13.921021 -13.104492,-21.902405 -29.670471,-26.728363c-16.565979,-4.825958 -35.851746,-0.92807 -44.505615,7.053314c-8.854248,8.166183 -8.159363,16.705231 0.494507,22.644867c5.842163,4.009857 12.609924,0 12.362671,-3.71228c-0.340637,-5.113983 -14.340698,-3.897888 -3.956055,-12.250504c7.031189,-5.65535 21.511047,-5.011581 29.175903,1.484909c7.664917,6.496475 11.825195,18.213196 1.483521,24.501022c-29.917664,18.19014 -92.967377,-36.751511 -169.12146,-37.122742c-36.101624,-0.177139 -90.5242,37.718872 -117.692719,41.577469c-64.038681,9.095062 -99.148643,-23.75856 -100.879425,-23.016098c-1.730774,0.742447 39.807831,36.009048 102.857483,28.955734c30.475067,-3.40921 86.523621,-38.697662 118.681732,-37.865204c71.703522,1.85614 139.945526,61.994965 181.978607,43.062408z" id="svg_5"/>
  </g>
 </g>
</svg>